<?xml version="1.0" encoding="UTF-8" standalone="no"?>
<!-- Created with Inkscape (http://www.inkscape.org/) -->

<svg
   version="1.1"
   id="svg1"
   width="786.3822"
   height="1779.9341"
   viewBox="0 0 786.3822 1779.9341"
   sodipodi:docname="doglogo.svg"
   inkscape:version="1.3.2 (091e20e, 2023-11-25, custom)"
   xml:space="preserve"
   xmlns:inkscape="http://www.inkscape.org/namespaces/inkscape"
   xmlns:sodipodi="http://sodipodi.sourceforge.net/DTD/sodipodi-0.dtd"
   xmlns="http://www.w3.org/2000/svg"
   xmlns:svg="http://www.w3.org/2000/svg"
   xmlns:rdf="http://www.w3.org/1999/02/22-rdf-syntax-ns#"
   xmlns:cc="http://creativecommons.org/ns#"
   xmlns:dc="http://purl.org/dc/elements/1.1/"><title
     id="title128">Logo Dog</title><defs
     id="defs1"><inkscape:path-effect
       effect="fillet_chamfer"
       id="path-effect224"
       is_visible="true"
       lpeversion="1"
       nodesatellites_param="F,0,0,1,0,0,0,1 @ F,0,0,1,0,0,0,1 @ F,0,0,1,0,0,0,1 @ F,0,0,1,0,0,0,1 @ F,0,0,1,0,0,0,1 @ F,0,0,1,0,0,0,1 @ F,0,0,1,0,0,0,1 @ F,0,0,1,0,0,0,1 @ F,0,0,1,0,0,0,1 @ F,0,0,1,0,0,0,1 @ F,0,0,1,0,0,0,1"
       radius="0"
       unit="px"
       method="auto"
       mode="F"
       chamfer_steps="1"
       flexible="false"
       use_knot_distance="true"
       apply_no_radius="true"
       apply_with_radius="true"
       only_selected="false"
       hide_knots="false" /><linearGradient
       id="linearGradient201"
       inkscape:swatch="gradient"><stop
         style="stop-color:#000000;stop-opacity:1;"
         offset="0"
         id="stop201" /><stop
         style="stop-color:#ed0000;stop-opacity:0;"
         offset="1"
         id="stop202" /></linearGradient><linearGradient
       id="swatch195"
       inkscape:swatch="solid"><stop
         style="stop-color:#af6f40;stop-opacity:1;"
         offset="0"
         id="stop195" /></linearGradient><linearGradient
       id="swatch25"
       inkscape:swatch="solid"><stop
         style="stop-color:#000000;stop-opacity:1;"
         offset="0"
         id="stop25" /></linearGradient><inkscape:path-effect
       effect="mirror_symmetry"
       start_point="528.00337,496.33023"
       end_point="528.00337,550.74896"
       center_point="528.00337,523.53959"
       id="path-effect24"
       is_visible="true"
       lpeversion="1.2"
       lpesatellites=""
       mode="free"
       discard_orig_path="false"
       fuse_paths="false"
       oposite_fuse="true"
       split_items="false"
       split_open="false"
       link_styles="false" /><inkscape:path-effect
       effect="mirror_symmetry"
       start_point="557.24655,495.7574"
       end_point="557.24655,551.37471"
       center_point="557.24655,523.56606"
       id="path-effect23"
       is_visible="true"
       lpeversion="1.2"
       lpesatellites=""
       mode="free"
       discard_orig_path="false"
       fuse_paths="false"
       oposite_fuse="false"
       split_items="false"
       split_open="false"
       link_styles="false" /><inkscape:path-effect
       effect="mirror_symmetry"
       start_point="-418.36468,-263.94715"
       end_point="-416.63776,276.88955"
       center_point="-417.50122,6.4712"
       id="path-effect5"
       is_visible="true"
       lpeversion="1.2"
       lpesatellites=""
       mode="free"
       discard_orig_path="false"
       fuse_paths="true"
       oposite_fuse="false"
       split_items="false"
       split_open="false"
       link_styles="false" /><inkscape:path-effect
       effect="mirror_symmetry"
       start_point="-925.62672,588.87819"
       end_point="-38.62672,588.87819"
       center_point="-482.12672,588.87819"
       id="path-effect4"
       is_visible="true"
       lpeversion="1.2"
       lpesatellites=""
       mode="horizontal"
       discard_orig_path="false"
       fuse_paths="false"
       oposite_fuse="false"
       split_items="false"
       split_open="false"
       link_styles="false" /><inkscape:path-effect
       effect="powerstroke"
       id="path-effect308"
       is_visible="true"
       lpeversion="1.3"
       scale_width="1"
       interpolator_type="CentripetalCatmullRom"
       interpolator_beta="0.75"
       start_linecap_type="round"
       end_linecap_type="round"
       offset_points="5.2627667,3.0527842"
       linejoin_type="spiro"
       miter_limit="4"
       not_jump="true"
       sort_points="true"
       message="&lt;b&gt;Ctrl + clique&lt;/b&gt; no nó existente e mova-o" /><inkscape:path-effect
       effect="simplify"
       id="path-effect307"
       is_visible="true"
       lpeversion="1.3"
       threshold="0.012"
       steps="1"
       smooth_angles="0"
       helper_size="0"
       simplify_individual_paths="false"
       simplify_just_coalesce="false"
       step="1" /><inkscape:path-effect
       effect="powerstroke"
       id="path-effect306"
       is_visible="true"
       lpeversion="1.3"
       scale_width="1"
       interpolator_type="CentripetalCatmullRom"
       interpolator_beta="0.75"
       start_linecap_type="round"
       end_linecap_type="round"
       offset_points="6.0799948,3.0527842"
       linejoin_type="spiro"
       miter_limit="4"
       not_jump="true"
       sort_points="true"
       message="&lt;b&gt;Ctrl + clique&lt;/b&gt; no nó existente e mova-o" /><inkscape:path-effect
       effect="simplify"
       id="path-effect305"
       is_visible="true"
       lpeversion="1.3"
       threshold="0.012"
       steps="1"
       smooth_angles="0"
       helper_size="0"
       simplify_individual_paths="false"
       simplify_just_coalesce="false"
       step="1" /><inkscape:path-effect
       effect="powerstroke"
       id="path-effect304"
       is_visible="true"
       lpeversion="1.3"
       scale_width="1"
       interpolator_type="CentripetalCatmullRom"
       interpolator_beta="0.75"
       start_linecap_type="round"
       end_linecap_type="round"
       offset_points="19.067264,3.0527842"
       linejoin_type="spiro"
       miter_limit="4"
       not_jump="true"
       sort_points="true"
       message="&lt;b&gt;Ctrl + clique&lt;/b&gt; no nó existente e mova-o" /><inkscape:path-effect
       effect="simplify"
       id="path-effect303"
       is_visible="true"
       lpeversion="1.3"
       threshold="0.012"
       steps="1"
       smooth_angles="0"
       helper_size="0"
       simplify_individual_paths="false"
       simplify_just_coalesce="false"
       step="1" /><inkscape:path-effect
       effect="powerstroke"
       id="path-effect302"
       is_visible="true"
       lpeversion="1.3"
       scale_width="1"
       interpolator_type="CentripetalCatmullRom"
       interpolator_beta="0.75"
       start_linecap_type="round"
       end_linecap_type="round"
       offset_points="10.132708,3.0527842"
       linejoin_type="spiro"
       miter_limit="4"
       not_jump="true"
       sort_points="true"
       message="&lt;b&gt;Ctrl + clique&lt;/b&gt; no nó existente e mova-o" /><inkscape:path-effect
       effect="simplify"
       id="path-effect301"
       is_visible="true"
       lpeversion="1.3"
       threshold="0.012"
       steps="1"
       smooth_angles="0"
       helper_size="0"
       simplify_individual_paths="false"
       simplify_just_coalesce="false"
       step="1" /><inkscape:path-effect
       effect="powerstroke"
       id="path-effect300"
       is_visible="true"
       lpeversion="1.3"
       scale_width="1"
       interpolator_type="CentripetalCatmullRom"
       interpolator_beta="0.75"
       start_linecap_type="round"
       end_linecap_type="round"
       offset_points="3.1045363,3.0527842"
       linejoin_type="spiro"
       miter_limit="4"
       not_jump="true"
       sort_points="true"
       message="&lt;b&gt;Ctrl + clique&lt;/b&gt; no nó existente e mova-o" /><inkscape:path-effect
       effect="simplify"
       id="path-effect299"
       is_visible="true"
       lpeversion="1.3"
       threshold="0.012"
       steps="1"
       smooth_angles="0"
       helper_size="0"
       simplify_individual_paths="false"
       simplify_just_coalesce="false"
       step="1" /><inkscape:path-effect
       effect="powerstroke"
       id="path-effect298"
       is_visible="true"
       lpeversion="1.3"
       scale_width="1"
       interpolator_type="CentripetalCatmullRom"
       interpolator_beta="0.75"
       start_linecap_type="round"
       end_linecap_type="round"
       offset_points="22.052026,3.0527842"
       linejoin_type="spiro"
       miter_limit="4"
       not_jump="true"
       sort_points="true"
       message="&lt;b&gt;Ctrl + clique&lt;/b&gt; no nó existente e mova-o" /><inkscape:path-effect
       effect="simplify"
       id="path-effect297"
       is_visible="true"
       lpeversion="1.3"
       threshold="0.012"
       steps="1"
       smooth_angles="0"
       helper_size="0"
       simplify_individual_paths="false"
       simplify_just_coalesce="false"
       step="1" /><inkscape:path-effect
       effect="powerstroke"
       id="path-effect296"
       is_visible="true"
       lpeversion="1.3"
       scale_width="1"
       interpolator_type="CentripetalCatmullRom"
       interpolator_beta="0.75"
       start_linecap_type="round"
       end_linecap_type="round"
       offset_points="2.4837099,3.0527842"
       linejoin_type="spiro"
       miter_limit="4"
       not_jump="true"
       sort_points="true"
       message="&lt;b&gt;Ctrl + clique&lt;/b&gt; no nó existente e mova-o" /><inkscape:path-effect
       effect="simplify"
       id="path-effect295"
       is_visible="true"
       lpeversion="1.3"
       threshold="0.012"
       steps="1"
       smooth_angles="0"
       helper_size="0"
       simplify_individual_paths="false"
       simplify_just_coalesce="false"
       step="1" /><inkscape:path-effect
       effect="simplify"
       id="path-effect286"
       is_visible="true"
       lpeversion="1.3"
       threshold="72.73"
       steps="1"
       smooth_angles="360"
       helper_size="0"
       simplify_individual_paths="false"
       simplify_just_coalesce="false" /><inkscape:path-effect
       effect="show_handles"
       id="path-effect285"
       is_visible="true"
       lpeversion="1"
       nodes="true"
       handles="true"
       original_path="true"
       show_center_node="false"
       original_d="false"
       scale_nodes_and_handles="10" /><inkscape:path-effect
       effect="simplify"
       id="path-effect284"
       is_visible="true"
       lpeversion="1.3"
       threshold="11.445806"
       steps="50"
       smooth_angles="360"
       helper_size="0"
       simplify_individual_paths="false"
       simplify_just_coalesce="false" /><inkscape:path-effect
       effect="powerstroke"
       id="path-effect283"
       is_visible="true"
       lpeversion="1.3"
       scale_width="1"
       interpolator_type="CentripetalCatmullRom"
       interpolator_beta="0.75"
       start_linecap_type="round"
       end_linecap_type="round"
       offset_points="2.0615628,14.678782"
       linejoin_type="spiro"
       miter_limit="4"
       not_jump="true"
       sort_points="true"
       message="&lt;b&gt;Ctrl + clique&lt;/b&gt; no nó existente e mova-o" /><inkscape:path-effect
       effect="simplify"
       id="path-effect282"
       is_visible="true"
       lpeversion="1.3"
       threshold="0.012"
       steps="1"
       smooth_angles="0"
       helper_size="0"
       simplify_individual_paths="false"
       simplify_just_coalesce="false"
       step="1" /><inkscape:path-effect
       effect="powerstroke"
       id="path-effect281"
       is_visible="true"
       lpeversion="1.3"
       scale_width="1"
       interpolator_type="CentripetalCatmullRom"
       interpolator_beta="0.75"
       start_linecap_type="round"
       end_linecap_type="round"
       offset_points="10.174125,14.678782"
       linejoin_type="spiro"
       miter_limit="4"
       not_jump="true"
       sort_points="true"
       message="&lt;b&gt;Ctrl + clique&lt;/b&gt; no nó existente e mova-o" /><inkscape:path-effect
       effect="simplify"
       id="path-effect280"
       is_visible="true"
       lpeversion="1.3"
       threshold="0.012"
       steps="1"
       smooth_angles="0"
       helper_size="0"
       simplify_individual_paths="false"
       simplify_just_coalesce="false"
       step="1" /><inkscape:path-effect
       effect="powerstroke"
       id="path-effect279"
       is_visible="true"
       lpeversion="1.3"
       scale_width="1"
       interpolator_type="CentripetalCatmullRom"
       interpolator_beta="0.75"
       start_linecap_type="round"
       end_linecap_type="round"
       offset_points="4.0358042,14.678782"
       linejoin_type="spiro"
       miter_limit="4"
       not_jump="true"
       sort_points="true"
       message="&lt;b&gt;Ctrl + clique&lt;/b&gt; no nó existente e mova-o" /><inkscape:path-effect
       effect="simplify"
       id="path-effect278"
       is_visible="true"
       lpeversion="1.3"
       threshold="0.012"
       steps="1"
       smooth_angles="0"
       helper_size="0"
       simplify_individual_paths="false"
       simplify_just_coalesce="false"
       step="1" /><inkscape:path-effect
       effect="powerstroke"
       id="path-effect277"
       is_visible="true"
       lpeversion="1.3"
       scale_width="1"
       interpolator_type="CentripetalCatmullRom"
       interpolator_beta="0.75"
       start_linecap_type="peak"
       end_linecap_type="peak"
       offset_points="2.7620046,14.678782"
       linejoin_type="spiro"
       miter_limit="4"
       not_jump="true"
       sort_points="true"
       message="&lt;b&gt;Ctrl + clique&lt;/b&gt; no nó existente e mova-o" /><inkscape:path-effect
       effect="simplify"
       id="path-effect276"
       is_visible="true"
       lpeversion="1.3"
       threshold="0.012"
       steps="1"
       smooth_angles="0"
       helper_size="0"
       simplify_individual_paths="false"
       simplify_just_coalesce="false"
       step="1" /><inkscape:path-effect
       effect="powerstroke"
       id="path-effect275"
       is_visible="true"
       lpeversion="1.3"
       scale_width="1"
       interpolator_type="CentripetalCatmullRom"
       interpolator_beta="0.75"
       start_linecap_type="peak"
       end_linecap_type="peak"
       offset_points="17.492164,18.132613"
       linejoin_type="spiro"
       miter_limit="4"
       not_jump="true"
       sort_points="true"
       message="&lt;b&gt;Ctrl + clique&lt;/b&gt; no nó existente e mova-o" /><inkscape:path-effect
       effect="simplify"
       id="path-effect274"
       is_visible="true"
       lpeversion="1.3"
       threshold="0.012"
       steps="1"
       smooth_angles="0"
       helper_size="0"
       simplify_individual_paths="false"
       simplify_just_coalesce="false"
       step="1" /><inkscape:path-effect
       effect="simplify"
       id="path-effect273"
       is_visible="true"
       lpeversion="1.3"
       threshold="56.895806"
       steps="50"
       smooth_angles="360"
       helper_size="10"
       simplify_individual_paths="true"
       simplify_just_coalesce="false" /><inkscape:path-effect
       effect="simplify"
       id="path-effect272"
       is_visible="false"
       lpeversion="1.3"
       threshold="100"
       steps="1"
       smooth_angles="360"
       helper_size="7.6539589"
       simplify_individual_paths="true"
       simplify_just_coalesce="false" /><inkscape:path-effect
       effect="fillet_chamfer"
       id="path-effect271"
       is_visible="true"
       lpeversion="1"
       nodesatellites_param=""
       radius="0"
       unit="px"
       method="auto"
       mode="F"
       chamfer_steps="1"
       flexible="false"
       use_knot_distance="true"
       apply_no_radius="true"
       apply_with_radius="true"
       only_selected="false"
       hide_knots="false" /><linearGradient
       id="swatch230"
       inkscape:swatch="solid"><stop
         style="stop-color:#ff0000;stop-opacity:0.326984;"
         offset="0"
         id="stop230" /></linearGradient><linearGradient
       id="swatch228"
       inkscape:swatch="solid"><stop
         style="stop-color:#000000;stop-opacity:0;"
         offset="0"
         id="stop228" /></linearGradient><inkscape:path-effect
       effect="powerstroke"
       id="path-effect221"
       is_visible="true"
       lpeversion="1.3"
       scale_width="1"
       interpolator_type="CentripetalCatmullRom"
       interpolator_beta="0.75"
       start_linecap_type="peak"
       end_linecap_type="peak"
       offset_points="6.777413,4.5331532"
       linejoin_type="spiro"
       miter_limit="4"
       not_jump="true"
       sort_points="true"
       message="&lt;b&gt;Ctrl + clique&lt;/b&gt; no nó existente e mova-o" /><inkscape:path-effect
       effect="simplify"
       id="path-effect220"
       is_visible="true"
       lpeversion="1.3"
       threshold="0.012"
       steps="1"
       smooth_angles="0"
       helper_size="0"
       simplify_individual_paths="false"
       simplify_just_coalesce="false"
       step="1" /><inkscape:path-effect
       effect="fillet_chamfer"
       id="path-effect190"
       is_visible="true"
       lpeversion="1"
       nodesatellites_param="F,0,0,1,0,0,0,1 @ F,0,0,1,0,0,0,1 @ F,0,0,1,0,0,0,1 @ F,0,0,1,0,0,0,1 @ F,0,0,1,0,0,0,1 @ F,0,0,1,0,0,0,1 @ F,0,0,1,0,0,0,1 @ F,0,0,1,0,0,0,1 @ F,0,0,1,0,0,0,1 @ F,0,0,1,0,0,0,1 @ F,0,0,1,0,0,0,1 @ F,0,0,1,0,0,0,1 @ F,0,0,1,0,0,0,1 @ F,0,0,1,0,0,0,1 @ F,0,0,1,0,0,0,1 @ F,0,0,1,0,0,0,1 @ F,0,0,1,0,0,0,1 @ F,0,0,1,0,0,0,1 @ F,0,0,1,0,0,0,1 @ F,0,0,1,0,0,0,1 @ F,0,0,1,0,0,0,1 @ F,0,0,1,0,0,0,1 @ F,0,0,1,0,0,0,1 @ F,0,0,1,0,0,0,1 @ F,0,0,1,0,0,0,1 @ F,0,0,1,0,0,0,1 @ F,0,0,1,0,0,0,1 @ F,0,0,1,0,0,0,1 @ F,0,0,1,0,0,0,1 @ F,0,0,1,0,0,0,1 @ F,0,0,1,0,0,0,1 @ F,0,0,1,0,0,0,1 @ F,0,0,1,0,0,0,1 @ F,0,0,1,0,0,0,1 @ F,0,0,1,0,0,0,1 @ F,0,0,1,0,0,0,1 @ F,0,0,1,0,0,0,1 @ F,0,0,1,0,0,0,1 @ F,0,0,1,0,0,0,1 @ F,0,0,1,0,0,0,1 @ F,0,0,1,0,0,0,1 @ F,0,0,1,0,0,0,1 @ F,0,0,1,0,0,0,1 @ F,0,0,1,0,0,0,1 @ F,0,0,1,0,0,0,1 @ F,0,0,1,0,0,0,1 @ F,0,0,1,0,0,0,1 @ F,0,0,1,0,0,0,1 @ F,0,0,1,0,0,0,1 @ F,0,0,1,0,0,0,1 @ F,0,0,1,0,0,0,1 @ F,0,0,1,0,0,0,1 @ F,0,0,1,0,0,0,1 @ F,0,0,1,0,0,0,1 @ F,0,0,1,0,0,0,1 @ F,0,0,1,0,0,0,1 @ F,0,0,1,0,0,0,1 @ F,0,0,1,0,0,0,1 @ F,0,0,1,0,0,0,1 @ F,0,0,1,0,0,0,1 @ F,0,0,1,0,0,0,1 @ F,0,0,1,0,0,0,1 @ F,0,0,1,0,0,0,1 @ F,0,0,1,0,20.306057,0,1 @ F,0,0,1,0,0,0,1 @ F,0,0,1,0,0,0,1 @ F,0,0,1,0,0,0,1"
       radius="0"
       unit="px"
       method="auto"
       mode="F"
       chamfer_steps="1"
       flexible="false"
       use_knot_distance="true"
       apply_no_radius="true"
       apply_with_radius="true"
       only_selected="false"
       hide_knots="false" /><linearGradient
       id="swatch138"
       inkscape:swatch="solid"><stop
         style="stop-color:#6df700;stop-opacity:0;"
         offset="0"
         id="stop138" /></linearGradient><linearGradient
       id="swatch137"
       inkscape:swatch="solid"><stop
         style="stop-color:#fd0000;stop-opacity:0.73968296;"
         offset="0"
         id="stop137" /></linearGradient><linearGradient
       id="swatch2"
       inkscape:swatch="solid"><stop
         style="stop-color:#3a4cef;stop-opacity:0;"
         offset="0"
         id="stop2" /></linearGradient><filter
       inkscape:collect="always"
       style="color-interpolation-filters:sRGB"
       id="filter38"
       x="-0.049112094"
       y="-0.053934376"
       width="1.0982242"
       height="1.1078688"><feGaussianBlur
         inkscape:collect="always"
         stdDeviation="0.48854761"
         id="feGaussianBlur38" /></filter></defs><sodipodi:namedview
     id="namedview1"
     pagecolor="#505050"
     bordercolor="#ffffff"
     borderopacity="1"
     inkscape:showpageshadow="0"
     inkscape:pageopacity="0"
     inkscape:pagecheckerboard="1"
     inkscape:deskcolor="#505050"
     inkscape:zoom="0.125"
     inkscape:cx="-863.99999"
     inkscape:cy="756"
     inkscape:window-width="1366"
     inkscape:window-height="705"
     inkscape:window-x="-8"
     inkscape:window-y="-8"
     inkscape:window-maximized="1"
     inkscape:current-layer="layer2"
     showguides="true" /><g
     inkscape:groupmode="layer"
     id="layer2"
     inkscape:label="Fazendo"
     transform="translate(1.6157812,22.252482)"
     style="display:none"><path
       id="path2"
       style="display:inline;fill:#820097;fill-opacity:0.586693;fill-rule:evenodd;stroke:#000000;stroke-opacity:0"
       inkscape:label="corpo base"
       d="m -287.32008,-311.87376 -3.66406,0.0234 c -22.98534,0.14699 -33.27012,28.49748 -41.82617,38.12696 -8.97013,10.09544 -44.20787,58.09996 -45.58203,158.91015 l -18.62305,34.152348 -78.45703,1.628906 c -1.89316,-81.261974 -80.26247,-142.198374 -89.29688,-152.236324 -8.61737,-9.57465 -19.08255,-37.85938 -42.06836,-37.85938 h -3.66406 c -14.71333,0 -25.32433,12.43896 -26.55859,27.7793 l 3.93945,75.49219 c -1.23427,15.3404 10.62292,132.765005 13.76367,143.697261 3.14074,10.932265 36.02998,53.844896 35.99024,68.382812 -0.0811,29.634116 -1.19837,174.299467 -0.27735,220.742187 -24.4505,45.07629 -57.93258,36.66227 -74.96094,128.69531 -10.17519,54.99384 -107.14391,204.82835 -114.95703,225.50586 -26.86338,52.69802 -65.20767,143.77248 -96.12109,220.78321 -12.41456,30.13075 -23.98722,59.06136 -32.53906,82.76562 -36.22297,51.1436 -21.84925,110.35425 -20.95703,169.03515 -0.13209,4.2404 1.61718,9.387 1.61718,13.6953 0,12.0484 0.11299,20.664 0.32032,28.6758 0.74533,28.8026 3.37046,40.5674 12.26367,93.3242 3.07981,18.2678 7.29883,35.7992 12.46875,52.3262 13.91099,44.4703 35.29662,81.0524 64.34179,100.5059 h 148.3086 v -0.1895 h 46.03906 c 0.42812,-0.1295 0.88201,-0.2011 1.35352,-0.2011 h 13.30859 c 0.4715,0 0.9254,0.072 1.35352,0.2011 l 0.54101,0.2032 c 1.62082,0.7224 2.74609,2.3412 2.7461,4.2363 v 54.2519 c 8.38188,15.5972 24.64302,26.2793 43.65625,26.2793 h 3.6621 c 1.73913,0 3.45632,-0.089 5.14844,-0.2617 h 126.65821 c 2.57073,0 4.64062,-2.0694 4.64062,-4.6406 0,0 -0.0401,-70.5307 0,-77.9102 0.005,-0.9325 1.55657,-4.2581 4.38867,-4.2929 3.50748,-0.043 95.38672,2.1347 95.38672,2.1347 0.35456,3.0235 0.8722,6.0705 1.54492,9.0938 6.85865,30.0892 22.04895,38.8607 32.89063,39.2129 51.47349,1.6724 103.74848,0.6425 155.44922,0.6425 1.70779,0 2.92524,-1.0683 3.73047,-2.4355 -1.3e-4,-0.023 -0.006,-0.044 -0.006,-0.066 v -80.7188 c -1.29168,-6.448 -3.90362,-13.0644 -7.53907,-19.0976 -8.07833,-12.4452 -26.48848,-24.814 -35.91211,-24.3535 l -58.14453,0.2851 v -228.348 h 0.002 1.1582 V 663.136 647.13405 c 9.99519,-29.28914 29.79301,-70.31927 31.11914,-109.19922 0.78614,-23.0485 3.11977,-110.60123 -2.37891,-163.8125 -4.5563,-28.15587 -36.71093,-105.83789 -36.71093,-105.83789 0.15805,-8.62303 2.83763,-24.38835 5.74218,-44.10547 4.71774,-32.02554 10.32113,-31.54642 11.28516,-49.7793 0.88427,-16.72449 -31.33155,-165.7267917 -31.46094,-179.912105 -0.1326,-14.537365 11.56692,-24.321678 15.4043,-35.029297 9.17643,-25.605424 -13.90805,-152.874818 -15.24024,-168.207028 l 3.45899,-75.51563 c -1.33221,-15.33211 -12.0233,-27.70345 -26.73633,-27.60937 z m 45.42578,974.31445 v 0.69531 h -2.81054 z"
       transform="translate(925.62672,290.12181)" /></g><g
     inkscape:groupmode="layer"
     id="layer1"
     inkscape:label="Dog"
     style="display:inline"
     transform="translate(1.6157812,22.252482)"><g
       id="g20"
       inkscape:label="Corpo"
       style="display:inline"><path
         id="path328"
         style="display:inline;fill:#b77543;fill-opacity:1;fill-rule:evenodd;stroke:#000000;stroke-opacity:0"
         inkscape:label="corpo"
         d="m -287.31912,-311.87405 -3.66406,0.0234 c -22.98538,0.14699 -33.2701,28.49746 -41.82617,38.12696 -8.97015,10.09546 -44.20911,58.09987 -45.58329,158.91026 l -18.62359,34.152117 -78.45619,1.629317 c -1.89316,-81.262134 -80.26245,-142.198354 -89.29688,-152.236324 -8.61739,-9.57467 -19.08251,-37.85938 -42.06836,-37.85938 h -3.66406 c -14.71335,0 -25.32433,12.43894 -26.55859,27.7793 l 3.93945,75.49219 c -1.23427,15.34044 10.62292,132.764983 13.76367,143.697261 3.14074,10.932287 36.02998,53.844866 35.99024,68.382812 -0.0811,29.634176 -1.19837,174.299367 -0.27735,220.742187 -24.45056,45.07637 -57.93324,36.66226 -74.96162,128.6955 -10.17521,54.99394 -107.14323,204.82867 -114.95635,225.50622 -31.23013,61.26427 -78.66761,175.71684 -110.99218,257.89008 40.35478,-52.1404 114.45692,-99.97884 172.40234,-76.67578 49.1711,19.77436 60.76078,78.20748 62.48633,142.35156 l 163.57422,-207.27539 v 174.21094 c 6.83566,-1.6132 13.8155,-2.71825 20.95507,-3.09375 11.45846,-0.2358 22.98738,2.15131 33.28711,7.21679 46.62727,-46.53357 86.54607,-92.87274 125.00842,-146.18322 25.2413,-34.30692 47.67845,-72.03596 64.72987,-105.16443 0,0 1.78279,-3.33912 5.55859,-17.31052 3.7758,-13.9714 24.54228,-70.31989 25.86841,-109.19992 0.78614,-23.04854 3.12009,-110.60067 -2.37859,-163.81204 -4.55632,-28.15593 -36.71052,-105.83765 -36.71052,-105.83765 0.15805,-8.62305 2.83689,-24.38889 5.74146,-44.10605 4.71774,-32.0256 10.32184,-31.54519 11.28587,-49.77809 0.88427,-16.72453 -31.33097,-165.7278301 -31.46036,-179.9131718 -0.1326,-14.5373942 11.56698,-24.3211072 15.40436,-35.0287482 9.17645,-25.605476 -13.90771,-152.87518 -15.2399,-168.20743 l 3.45898,-75.51563 c -1.33221,-15.33215 -12.02328,-27.70345 -26.73633,-27.60937 z M -653.15797,1018.1926 c -10.42679,65.4396 -42.54379,137.7819 -93.6543,208.9434 -7.40538,10.2982 -15.02187,19.3749 -22.72851,27.4512 l 84.77929,-0.916 c 7.9218,-0.086 37.043,4.4317 52.35352,14.8828 2.18724,1.493 4.09175,3.1066 5.61328,4.8457 0.39225,-11.7321 -0.0454,-39.649 -0.23047,-60.4141 z"
         sodipodi:nodetypes="ssscccsssccsscsccscccccsczszcssssccsccccsccc"
         transform="translate(925.62672,290.12181)" /><path
         id="path7"
         style="display:inline;fill:#000000;fill-opacity:0.8;fill-rule:evenodd;stroke:#000000;stroke-opacity:0"
         inkscape:label="costa"
         d="m -583.6443,266.96605 c -24.45056,45.07637 -57.93324,36.66226 -74.96162,128.6955 -10.17521,54.99394 -107.14323,204.82867 -114.95635,225.50622 -31.23013,61.26427 -78.66761,175.71684 -110.99218,257.89008 40.35478,-52.1404 114.45692,-99.97884 172.40234,-76.67578 0,0 45.63281,48.9134 36.84758,-23.80219 -11.24314,-93.05983 142.04196,-328.73287 133.11924,-406.70043 -16.01509,-139.94141 -41.45901,-104.9134 -41.45901,-104.9134 z"
         sodipodi:nodetypes="cscccssc"
         transform="translate(925.62672,290.12181)" /><path
         style="display:inline;fill:#000000;fill-opacity:0.8;fill-rule:evenodd;stroke:#000000;stroke-width:1.88976;stroke-linecap:round;stroke-linejoin:round;stroke-opacity:0;paint-order:stroke fill markers"
         d="m 443.80512,588.43185 c 14.41266,17.01393 36.42943,24.81119 58.22254,25.76588 27.73836,1.46976 56.43143,4.46665 83.46245,-3.55399 18.00447,-6.28218 34.60163,-22.47598 33.69854,-42.75098 -0.85842,-25.4251 0.0284,-51.1589 -4.56897,-76.28061 -2.18406,-14.9231 -10.78265,-27.37335 -18.75832,-39.68654 -8.80738,-13.11764 -3.31786,-30.91161 10.553,-37.91874 16.66241,-8.57219 34.15858,-20.63238 37.86736,-40.40178 4.90167,-24.35481 -11.53789,-46.98853 -29.00201,-62.1478 -13.73328,-11.17576 -33.27094,-21.69295 -50.99616,-13.95732 -18.20733,11.59099 -22.11528,35.2413 -23.73145,55.12963 -2.05335,16.38786 -7.96549,37.73175 -27.02534,40.90951 -16.48108,4.04838 -30.94926,-9.8013 -34.37448,-25.08279 -2.63471,-15.45098 -4.42771,-32.66989 -20.43883,-40.60146 -15.85951,-12.078 -41.89181,-15.5073 -55.5059,1.69704 -13.62835,16.54365 -18.53131,38.38327 -18.20294,59.42849 0.28361,13.61191 -3.51326,31.64938 8.80499,41.03101 14.3937,1.56904 29.72207,-2.71449 43.87249,2.65052 16.29555,4.12616 16.69479,25.67531 9.10019,37.4035 -17.03521,3.69268 -27.80456,28.44886 -26.95036,42.60817 1.01588,20.80662 9.70798,45.79466 13.51361,56.45861 1.36137,7.35153 5.1862,14.0486 10.45959,19.29965 z"
         id="path22"
         sodipodi:nodetypes="cccccccccccccccccccccc"
         inkscape:label="rosto" /><path
         id="path24"
         style="display:inline;fill:#000000;fill-opacity:1;stroke:#000000;stroke-width:1.89;stroke-linecap:round;stroke-linejoin:round;stroke-dasharray:none;stroke-opacity:0;paint-order:stroke fill markers"
         inkscape:label="nariz"
         d="m 533.86859,495.71041 c -1.84379,-0.005 -3.77605,0.009 -5.77343,0.0527 -7.98958,0.17677 -10.41269,0.2601 -12.39258,0.26563 -13.18364,0.0368 -26.72495,4.63313 -31.17383,16.36523 -3.02942,7.98885 5.85547,17.35352 10.85547,16.85352 4.99995,-0.5 12.94064,-2.95703 17.43945,0.73242 3.92441,3.21835 2.48943,11.33962 2.51563,14.05469 0.0262,2.71502 -0.40117,7.21333 4.23242,7.21484 2.49661,10e-4 3.64396,-0.009 4.56641,-0.0254 -0.30637,3.89307 -0.46332,10.65592 -0.94532,22.54688 -1.03497,25.53275 -6.14884,32.89944 -19.70312,33.18945 -1.84932,0.0396 -3.5691,0.0817 -5.1503,0.12429 -7.77641,0.20965 -6.47454,0.30691 -12.26376,0.86985 -1.62817,0.15832 -7.3785,-4.53709 -9.63444,-5.37193 -3.51071,-1.29918 -2.63005,1.3646 -1.4518,2.30105 0.92702,0.73679 6.10184,5.68952 8.52178,5.97127 0,0 10.07287,1.42117 19.74805,1.44727 7.80637,0.0211 15.10443,-0.73459 17.14648,-1.30665 3.86602,-1.083 2.98773,-3.61598 5.03711,-3.53125 1.84197,0.0762 1.07373,2.58609 4.25196,3.53711 1.66059,0.49692 10.63175,1.49735 19.34961,1.50586 8.6871,0.008 17.12304,-1.41211 17.12304,-1.41211 3.15425,0.18163 3.13176,-3.17729 1.64453,-3.49414 -1.31804,-0.2808 0.39005,0.56725 -12.97851,-0.72851 -7.10094,-0.68826 -13.57524,-1.23098 -21.41016,-2.9336 -8.14455,-1.76989 -4.7477,-19.31639 -4.82617,-26.15039 -0.17149,-14.93663 0.0703,-22.57469 -0.18359,-26.65625 5.35405,-0.11332 4.7221,-0.0475 8.02148,-0.16601 3.59597,-0.12923 4.20625,-4.21662 4.23242,-6.93164 0.0262,-2.71507 -1.40878,-10.83634 2.51563,-14.05469 4.49881,-3.68945 12.4395,-1.23242 17.43945,-0.73242 5,0.5 12,-8.50005 9,-16.5 -4.47829,-11.72091 -7.67135,-16.24599 -22.07031,-16.71875 -3.40613,-0.11184 -8.15218,-0.30358 -13.6836,-0.31836 z"
         sodipodi:nodetypes="sssssssccsssssscssssscsssscsssscsss" /></g><path
       d="m 364.22406,569.58346 c 4.78781,10.88126 9.76051,28.81041 14.3418,57.12109 32.01403,24.88009 69.22318,53.87528 81.81836,67.04297 21.99996,22.99995 145.00002,29.99998 156,19 7.98277,-7.98277 55.45421,-66.46889 80.42578,-99.80078 -7.68704,-21.21634 -12.8469,-34.20356 -16.33203,-42.77149 -4.90487,-1.76193 -9.41309,-2.7229 -12.59375,-1.92773 -11.99998,3 -67.95997,55.74453 -75.5,63.5 -35.46044,36.47359 -35.00014,33.49992 -102.5,-1 -11.15925,-5.70363 -72.88493,-32.4517 -125.66016,-61.16406 z"
       style="display:inline;fill-opacity:0.434125;stroke-width:0.709;stroke-linecap:round;stroke-linejoin:round;paint-order:markers fill stroke"
       id="path153" /><g
       inkscape:groupmode="layer"
       id="layer3"
       inkscape:label="Colar"
       style="display:inline"><path
         d="M 681.46875,552.34375 557.28516,653.91211 h -2.45313 c -0.1386,0 -0.27341,0.007 -0.41016,0.0117 L 342.20211,548.77284 c -2.29873,-1.21455 -4.60277,-1.50902 -6.36719,-1.11328 -1.65936,3.56549 -3.35338,7.13796 -5.14648,10.63672 0.7806,1.51163 2.25114,3.02128 4.31055,4.10937 l 212.20804,105.14513 v 46.54883 c 0,2.51096 3.40049,4.53125 7.625,4.53125 h 3.06641 c 4.2245,0 7.625,-2.02029 7.625,-4.53125 V 667.62695 L 690.4707,565.47852 c -0.005,-1.85312 0.12994,-3.64066 -0.13086,-5.625 z"
         style="display:inline;fill:#07132c;fill-opacity:1;fill-rule:evenodd;stroke:#000000;stroke-opacity:0"
         id="path331"
         sodipodi:nodetypes="ccsccccccsssscccc" /><path
         id="rect334"
         style="display:inline;fill:#2fccfb;fill-opacity:1;fill-rule:evenodd;stroke:#000000;stroke-width:31.7106;stroke-linecap:round;stroke-linejoin:round;stroke-dasharray:none;stroke-opacity:0;paint-order:stroke fill markers"
         d="m 495.82919,696.04681 c -5.76058,-0.0484 -3.43353,4.74176 -3.88657,7.51639 v 94.88609 c 17.88214,11.61194 36.59092,22.9662 58.00323,30.56331 8.96029,3.99934 18.51512,-0.5429 26.17565,-4.14233 15.66403,-7.58359 29.95487,-16.72364 43.34872,-26.48533 0.0992,-17.98637 -0.29941,-35.62725 -0.17082,-53.634 v -44.78265 c -0.63733,-5.26952 -8.4413,-3.67215 -13.20476,-3.92147 -36.75516,0 -73.5103,0 -110.26545,-10e-6 z"
         sodipodi:nodetypes="cccccccccc" /></g><g
       inkscape:groupmode="layer"
       id="layer4"
       inkscape:label="patas"
       transform="translate(-1.6157812,-22.252482)"
       style="display:inline"><path
         id="path337"
         style="display:inline;fill:#764b2b;fill-opacity:1;fill-rule:evenodd;stroke:#000000;stroke-width:0.962825;stroke-opacity:0"
         d="m 460.49023,1198.6973 c -45.26269,2.3807 -84.90636,31.3342 -112.74104,65.3036 -9.21239,16.523 -13.20277,35.4557 -23.75325,51.3663 -11.30545,22.5158 -10.42753,48.7513 -11.69002,73.3434 0.42402,32.0724 3.59125,64.0749 4.58836,96.1133 3.19134,27.9144 6.99506,55.8173 13.34595,83.2113 h 68.67774 c 0,34.5651 0.99999,64.6302 1,99.1953 60.7767,0.2857 118.95985,7.3578 179.71174,5.491 -9.01126,-27.7835 -15.29718,-58.8418 -19.72476,-87.8616 -2.60243,-26.82 -30.6727,-43.6642 -56.02527,-40.3793 -14.08774,0.1275 -28.17126,-0.276 -42.25859,-0.1857 33.83557,-46.6625 61.73399,-99.1326 73.62189,-155.9042 3.95447,-30.5382 5.37788,-61.6163 3.81087,-92.3968 -2.99111,-33.3837 -11.85638,-72.6339 -44.16616,-89.555 -10.57377,-5.4463 -22.53012,-7.9858 -34.39746,-7.7416 z"
         inkscape:label="pata frente fundo"
         transform="translate(1.6157812,22.252482)"
         sodipodi:nodetypes="cccccccccccccccc" /><path
         id="path248"
         style="display:inline;fill:#af6f40;fill-opacity:1;fill-rule:evenodd;stroke:#000000;stroke-width:1.17912;stroke-opacity:0"
         inkscape:label="patas back"
         d="m 683.73188,952.56197 -7.0918,1.75391 c -17.05148,33.12863 -38.2703,67.57192 -63.51172,101.87892 -38.93222,52.9147 -81.5335,97.7235 -122.76758,131.3691 l 67.06055,360.2774 c 6.64172,26.794 25.41601,85.4687 25.41601,85.4687 2.55154,7.5339 4.64014,34.024 8.02149,51.2188 2.0292,7.8795 4.00618,16.5997 7.45508,22.4218 6.90285,7.1987 16.27,12.2775 23.42968,14.5625 0.61719,-0.038 1.99804,-0.6539 2.60547,-0.7929 0.24745,-0.059 0.49292,-0.1271 0.73633,-0.2032 0.68493,0.3976 1.47011,0.6426 2.32227,0.6426 h 11.93359 c 25.84832,-0.9098 100.28025,-0.5364 116.23047,-0.045 0.32481,0.01 0.50066,0.033 0.81836,0.045 h 20.69726 c 3.47089,-1.2095 5.05156,-4.2434 5.25,-11.4863 0.43173,-15.7581 0.6486,-68.8621 -0.21484,-74.9063 -0.28445,-1.9909 -1.732,-6.7476 -2.92773,-10.9238 -0.81712,-1.6746 -1.50682,-3.3958 -2.47461,-5.0019 -8.07835,-12.4452 -26.48848,-24.814 -35.91211,-24.3535 l -58.14453,0.2851 z m -244.19727,75.01753 -163.57422,207.2754 c -1.72555,-64.144 -13.31503,-122.5771 -62.48633,-142.3515 -57.94645,-23.3034 -132.049724,24.5363 -172.404294,76.6777 -6.217425,15.8056 -12.881985,32.3957 -17.666016,45.6563 -7.670306,10.8298 -12.694261,22.085 -16.4355468,33.5566 -4.7697486,24.608 -6.88484633,51.6747 -7.35937503,78.957 0.94377609,18.7122 2.55068883,37.6323 2.83789063,56.5215 -0.1320886,4.2404 1.6171874,9.3868 1.6171875,13.6953 4e-7,12.0484 0.112985,20.664 0.3203125,28.6758 0.072281,2.7932 0.2692198,4.9666 0.3808594,7.4922 5.2784648,51.2529 12.5410158,89.0684 12.5410158,89.0684 1.321942,7.4708 2.91362,14.7378 4.630859,21.9043 h -0.177734 c 2.181488,9.3063 4.61096,18.4057 7.357422,27.1855 3.45655,11.0498 7.383282,21.6012 11.765625,31.5352 13.072656,29.5965 30.277266,53.5934 51.669922,68.2753 l 189.298412,3.182 c 5.10518,0.086 8.74972,-0.3169 11.60937,-0.8769 0.32411,0.3311 0.63995,0.8289 0.97071,1.1816 h 4.14843 c 0.4715,0 0.9254,0.072 1.35352,0.2012 l 0.54101,0.2031 c 1.62082,0.7224 2.7461,2.3413 2.7461,4.2364 v 7.5664 c 0.73895,1.6131 1.28209,3.2175 1.54101,4.7597 1.40764,17.2111 0.84106,42.4785 2.95313,45.92 1.46358,2.385 7.92601,10.4151 15.32812,15.871 4.11301,2.295 8.51033,4.1186 13.25391,5.1583 16.46485,1.5659 113.81765,-1.0536 131.27037,-0.5157 19.81146,0.6106 26.33389,4.316 26.76562,-11.4414 0.43173,-15.7581 -3.24054,-72.044 -4.10393,-78.0882 -0.86346,-6.0442 -6.02059,-26.2974 -14.89453,-35.6172 -9.37723,-9.8485 -26.87813,-15.9184 -36.91992,-17.7813 z"
         sodipodi:nodetypes="ccsccccccccscsccsscccccccscccccssccccsccsccsccsccsccsssscc"
         transform="translate(1.6157812,22.252482)" /><path
         d="m 272.46875,1308.3145 c -10.42685,65.44 -42.54349,137.7812 -93.6543,208.9433 -7.40544,10.2982 -15.02181,19.3749 -22.72851,27.4512 l 84.77929,-0.916 c 7.9218,-0.086 37.04288,4.4317 52.35352,14.8828 2.18724,1.493 4.09175,3.1066 5.61328,4.8457 0.39225,-11.7321 -0.0454,-39.649 -0.23047,-60.4141 z"
         style="display:inline;fill:#764b2b;fill-opacity:1;fill-rule:evenodd;stroke:#000000;stroke-opacity:0"
         id="path260"
         inkscape:label="pata back fundo"
         transform="translate(1.6157812,22.252482)" /><path
         id="path204"
         style="color:#000000;display:inline;fill:#000000;fill-opacity:0.8;fill-rule:evenodd;stroke-linecap:round;stroke-linejoin:round;stroke-miterlimit:1;-inkscape-stroke:none;paint-order:fill markers stroke"
         inkscape:label="avaliar"
         d="M 440.32617 1047.7988 C 439.8394 1047.9408 439.39636 1048.2297 439.06641 1048.6465 L 438.5293 1057.3984 L 437.4082 1638.2793 C 437.4079 1639.4847 438.26784 1640.5188 439.45312 1640.7383 C 449.04952 1642.5186 466.3578 1648.6902 475.01758 1657.7852 C 482.97776 1666.1451 488.47125 1686.5929 489.24805 1692.0312 C 489.42215 1693.2501 489.83712 1698.0343 490.29492 1704.3926 C 490.75282 1710.7509 491.27837 1718.8358 491.76367 1727.2227 C 492.73427 1743.9962 493.53447 1762.0937 493.32617 1769.6973 C 493.22297 1773.4617 492.70801 1775.8486 492.03711 1777.1191 C 491.36621 1778.3895 490.74223 1778.8182 489.14453 1779.1895 C 485.94923 1779.9321 485.19936 1781.3176 475.14648 1781.0078 L 484.96875 1782.1133 C 487.53215 1781.5176 495.16054 1781.9045 496.45312 1779.457 C 497.74572 1777.0095 498.20751 1773.9483 498.32031 1769.834 C 498.54371 1761.6796 497.7232 1743.7532 496.75 1726.9336 C 496.2633 1718.5238 495.73724 1710.4208 495.27734 1704.0332 C 494.81734 1697.6456 494.44891 1693.1274 494.19141 1691.3242 C 493.24141 1684.6744 488.42049 1664.6173 478.63281 1654.3379 C 469.11243 1644.339 453.02092 1638.5964 442.40234 1636.3281 L 443.52344 1050.1953 C 443.52274 1049.1321 442.8497 1048.1857 441.8457 1047.8359 C 441.34345 1047.6618 440.81295 1047.6569 440.32617 1047.7988 z M 180.99609 1106.5703 C 136.46019 1108.2049 96.687641 1133.4337 65.105469 1163.1934 C 65.653965 1177.5433 79.250275 1152.9622 86.123047 1151.5039 C 119.35312 1125.3129 162.86864 1103.4777 206.02734 1114.7129 C 238.56832 1122.9338 258.96533 1153.8617 266.18359 1184.9746 C 283.55195 1260.874 274.56244 1341.7336 246.51562 1413.9863 C 225.00644 1469.7536 191.61815 1520.0247 155.09961 1566.9375 C 162.50907 1571.6007 172.07379 1551.0045 179.42969 1545.0195 C 230.49629 1480.9402 263.76868 1403.1503 277.68164 1322.5742 C 280.84634 1287.8401 280.77996 1252.7064 278.06836 1217.9551 C 272.99786 1180.7847 261.5283 1138.7247 227.07812 1118.291 C 213.2378 1110.0796 197.03555 1106.2446 180.99609 1106.5703 z M 273.59961 1608.0293 C 272.07613 1608.0293 270.84961 1615.4187 270.84961 1624.5977 L 270.84961 1696.9258 L 282.84961 1697.1289 L 282.84961 1624.5977 C 282.84961 1615.4187 281.62311 1608.0293 280.09961 1608.0293 L 273.59961 1608.0293 z M 526.59961 1620.0293 C 525.07613 1620.0293 523.84961 1625.5142 523.84961 1632.3281 L 523.84961 1694.5 C 527.84844 1694.6496 531.84085 1694.826 535.84961 1694.9355 L 535.84961 1632.3281 C 535.84961 1625.5142 534.62311 1620.0293 533.09961 1620.0293 L 526.59961 1620.0293 z M 212.09961 1621.0293 C 210.57613 1621.0293 209.34961 1627.4664 209.34961 1635.4629 L 209.34961 1695.8926 L 221.34961 1696.0938 L 221.34961 1635.4629 C 221.34961 1627.4664 220.12311 1621.0293 218.59961 1621.0293 L 212.09961 1621.0293 z M 565.32617 1629.791 L 565.32617 1695.1934 C 569.31839 1695.1654 573.31397 1695.1253 577.32617 1695.0273 L 577.32617 1682.0195 C 572.48511 1665.0984 568.53789 1647.3367 565.32617 1629.791 z M 716.07617 1662.0742 C 714.55267 1662.0742 713.32617 1667.801 713.32617 1674.9141 L 713.32617 1742.9609 C 718.36636 1742.9839 720.80244 1743.037 725.32617 1743.0723 L 725.32617 1674.9141 C 725.32617 1667.801 724.09967 1662.0742 722.57617 1662.0742 L 716.07617 1662.0742 z M 749.53711 1665.2441 C 748.01363 1665.2441 746.78711 1670.6583 746.78711 1677.3848 L 746.78711 1743.2715 C 749.28681 1743.3155 755.66291 1743.3202 757.1875 1743.3672 C 757.51231 1743.3772 757.68816 1743.4001 758.00586 1743.4121 L 758.78711 1743.4121 L 758.78711 1677.3848 C 758.78711 1670.6583 757.56061 1665.2441 756.03711 1665.2441 L 749.53711 1665.2441 z M 674.59961 1666.0293 C 673.07613 1666.0293 671.84961 1671.5142 671.84961 1678.3281 L 671.84961 1742.9434 C 675.67426 1742.9194 679.81752 1742.9231 683.84961 1742.9121 L 683.84961 1678.3281 C 683.84961 1671.5142 682.62311 1666.0293 681.09961 1666.0293 L 674.59961 1666.0293 z M 402.07617 1688.5742 C 400.55267 1688.5742 399.32617 1694.301 399.32617 1701.4141 L 399.32617 1775.9824 C 399.32617 1778.1499 399.613 1779.7328 399.81445 1781.5195 C 404.32099 1781.4595 406.37041 1781.4785 410.8457 1781.4141 C 411.04004 1779.6516 411.32617 1778.1086 411.32617 1775.9824 L 411.32617 1701.4141 C 411.32617 1694.301 410.09967 1688.5742 408.57617 1688.5742 L 402.07617 1688.5742 z M 448.03711 1693.2441 C 446.51363 1693.2441 445.28711 1698.6583 445.28711 1705.3848 L 445.28711 1775.9004 C 445.28711 1777.9244 445.57275 1779.3974 445.76953 1781.0723 C 449.17774 1781.0433 454.21983 1780.9639 456.81445 1780.9648 C 457.00365 1779.3153 457.28711 1777.8824 457.28711 1775.9004 L 457.28711 1705.3848 C 457.28711 1698.6583 456.06061 1693.2441 454.53711 1693.2441 L 448.03711 1693.2441 z M 364.59961 1701.0293 C 363.07613 1701.0293 361.84961 1705.9109 361.84961 1711.9746 L 361.84961 1775.541 C 361.84961 1778.0125 362.15933 1780.0273 362.50391 1781.8555 C 365.66748 1781.8555 369.70955 1781.7906 373.20508 1781.7676 C 373.54097 1779.9526 373.84961 1777.9781 373.84961 1775.541 L 373.84961 1711.9746 C 373.84961 1705.9109 372.62311 1701.0293 371.09961 1701.0293 L 364.59961 1701.0293 z " /><path
         id="path214"
         style="display:inline;fill:#f9f9f9;fill-opacity:0;fill-rule:evenodd;stroke:#000000;stroke-width:5.3;stroke-dasharray:none;stroke-opacity:0.80000001"
         inkscape:label="corpo"
         d="m -431.84992,915.79173 c 46.62717,-46.53349 86.54749,-92.87322 125.00976,-146.1836 25.24126,-34.30684 47.67714,-72.03565 64.72852,-105.16406 0,0 1.78281,-3.33917 5.55859,-17.31055 3.7758,-13.97136 25.25014,-70.31927 26.57625,-109.19922 0.78614,-23.04848 4.69082,-128.60123 -8.58601,-181.8125 -3.13317,-19.36152 -16.50847,-54.53911 -26.3125,-79.375"
         transform="translate(927.2425,312.37429)"
         sodipodi:nodetypes="cccsscc" /><path
         id="path223"
         style="display:inline;fill:#af6f40;fill-opacity:0.00863929;fill-rule:evenodd;stroke:#000000;stroke-width:5;stroke-dasharray:none;stroke-opacity:0.8"
         d="m 621.31003,1719.0383 c 26.09829,0.3402 118.31148,1.585 134.26169,2.0763 0.32481,0.01 0.50066,0.033 0.81836,0.045 h 20.69726 c 3.47089,-1.2095 5.05156,-4.2434 5.25,-11.4863 0.43173,-15.7581 0.6486,-68.8621 -0.21484,-74.9063 -0.28445,-1.9908 -1.73201,-6.7476 -2.92773,-10.9238 -0.81712,-1.6746 -1.50682,-3.3958 -2.47461,-5.0019 -8.07835,-12.4452 -26.48849,-24.814 -35.91211,-24.3535 l -58.14453,0.2851 -0.55664,-636.58593"
         transform="translate(1.6157812,22.252482)"
         sodipodi:nodetypes="csccssccccc" /></g><g
       id="g19"
       inkscape:label="orelha"
       style="display:inline"><path
         id="path15"
         style="display:inline;mix-blend-mode:normal;fill:#000000;fill-opacity:0.8;fill-rule:evenodd;stroke:#000000;stroke-width:1.88976;stroke-linecap:round;stroke-linejoin:round;stroke-opacity:0;paint-order:stroke fill markers"
         inkscape:label="fundo"
         d="m 638.30805,-21.752482 -3.66407,0.02344 c -22.98523,0.146989 -33.27015,28.4975005 -41.82617,38.126954 -8.9701,10.09541 -44.2098,58.100296 -45.58398,158.910148 l -18.36328,33.58985 -78.71875,2.16211 C 448.2403,129.81319 369.89016,68.88969 360.85688,58.852987 352.23949,49.278362 341.77422,20.993612 318.78852,20.993612 h -3.66407 c -14.71325,0 -25.32433,12.439012 -26.55859,27.779297 l 3.93945,75.492191 c -1.23427,15.34034 10.62297,132.76503 13.76367,143.69726 3.14074,10.93224 36.02998,53.84496 35.99024,68.38281 -0.001,0.42909 -0.014,2.53701 -0.0156,3.01368 2.88391,-2.76094 5.45878,-6.14048 7.881,-9.87402 7.62872,-11.75865 13.7434,-27.02865 23.23033,-37.54395 20.01842,-22.18839 33.25705,-39.90548 47.28906,-47.91211 6.18792,-3.53081 20.33692,-3.58809 24.06446,0.33594 9.14817,9.63036 8.96043,23.80227 10.00195,29.91015 3.42521,15.28146 28.27271,43.29525 49.17383,40.08203 17.58015,-2.70267 27.27087,-28.19226 29.32422,-44.58008 0,0 1.70549,-31.40208 13.67827,-36.21622 7.89613,-3.17495 8.03677,-6.48279 18.27625,-1.94157 22.8451,10.13183 56.1822,37.45662 56.1822,37.45662 12.15229,10.10188 26.17993,12.97508 40.51562,10.58399 2.10492,-11.90095 11.58051,-20.63662 14.96485,-30.08008 9.1764,-25.60537 -13.90805,-152.874857 -15.24024,-168.207032 L 665.04438,5.856893 C 663.71217,-9.4751805 653.021,-21.846562 638.30805,-21.752482 Z"
         sodipodi:nodetypes="ssscccsssccsccsssscacssccsccs" /><path
         id="path16"
         style="display:inline;fill:#78583f;fill-opacity:0.839216;fill-rule:evenodd;stroke:#000000;stroke-width:1.55776;stroke-linecap:round;stroke-linejoin:round;stroke-opacity:0;paint-order:stroke fill markers"
         d="m 630.55414,2.0150961 -2.34961,0.017578 c -14.73615,0.115614 -21.32907,22.4161889 -26.81445,29.9902349 -5.75086,7.940544 -28.34361,45.698229 -29.22461,124.990231 l -10.55078,23.74024 c 9.17438,9.49778 26.28492,17.60151 58.06445,50.01172 7.79101,7.94563 16.7838,10.20495 25.97461,8.32421 1.34949,-9.36069 7.42597,-16.23044 9.5957,-23.6582 5.88312,-20.13988 -8.9174,-120.243208 -9.77148,-132.302733 l 2.2168,-59.396484 C 646.84067,11.672451 639.98682,1.9410972 630.55414,2.0150961 Z M 321.12445,39.212362 c -11.86197,0 -20.41508,10.484846 -21.41015,23.414062 l 3.17578,63.624996 c -0.99509,12.92928 8.56363,111.8993 11.0957,121.11329 2.53209,9.214 29.04766,45.38183 29.01563,57.63476 -8.2e-4,0.36164 -0.0107,2.13732 -0.0117,2.53906 9.64767,-9.65578 15.00509,-28.28822 25.08203,-39.96484 41.16807,-47.70325 58.42456,-55.83209 65.57812,-68.22266 l -3.66211,0.0781 c -1.5263,-68.48958 -64.70858,-119.848328 -71.9922,-128.308565 -6.9474,-8.069757 -15.3847,-31.908203 -33.91602,-31.908203 z"
         inkscape:label="meio" /><path
         id="path18"
         style="display:inline;fill:#794d2a;fill-opacity:0.820564;fill-rule:evenodd;stroke:#000000;stroke-width:1.20827;stroke-linecap:round;stroke-linejoin:round;stroke-opacity:0;paint-order:stroke fill markers"
         d="m 626.42133,11.757284 -1.58789,0.01758 c -9.96171,0.102893 -14.41881,19.946792 -18.12696,26.6875 -3.8876,7.066882 -19.1603,40.67042 -19.75585,111.238276 l -7.13282,21.12891 c 6.20193,8.45278 17.76885,15.6655 39.25196,44.50976 5.26676,7.07142 11.34556,9.08202 17.55859,7.40821 0.91227,-8.33077 5.01957,-14.44417 6.48633,-21.05469 3.97701,-17.92398 -6.02811,-107.015378 -6.60547,-117.748044 l 1.5,-52.861329 C 637.43185,20.350859 632.79787,11.691427 626.42133,11.757284 Z M 326.73578,50.519002 c -8.01876,0 -13.80194,9.331219 -14.47461,20.837891 l 2.14649,56.624997 c -0.67269,11.50673 5.79026,99.5869 7.50195,107.78711 1.71171,8.20022 19.63689,40.38818 19.61523,51.29297 -5.5e-4,0.32185 -0.009,1.90223 -0.01,2.25977 6.52187,-8.5934 10.14497,-25.17451 16.95703,-35.56641 27.82981,-42.45468 39.49423,-49.6895 44.33008,-60.7168 l -2.47461,0.0703 C 399.2958,132.15485 356.58337,86.446836 351.65961,78.91744 346.96314,71.735562 341.26109,50.519002 328.73383,50.519002 Z"
         inkscape:label="ponta" /></g><g
       id="g45"
       style="display:inline"><g
         id="g38"><path
           id="path32"
           style="display:inline;fill:#ffffff;fill-opacity:1;stroke:#000000;stroke-width:2.27377;stroke-linecap:round;stroke-linejoin:round;stroke-opacity:0;paint-order:markers fill stroke"
           inkscape:transform-center-x="5.3801209"
           inkscape:transform-center-y="-3.1436189"
           d="m 459.59769,398.42791 c -14.76978,6.7981 -45.82368,2.75815 -48.11113,-11.38585 -2.01667,-12.4697 20.67898,-35.44732 43.17777,-26.65849 16.03555,6.26406 19.7031,31.24627 4.93336,38.04434 z"
           sodipodi:nodetypes="ssss" /><ellipse
           style="display:inline;fill:#301606;fill-opacity:1;fill-rule:nonzero;stroke:#000000;stroke-width:1.5;stroke-linecap:round;stroke-linejoin:round;stroke-dasharray:none;stroke-opacity:1;paint-order:markers fill stroke;filter:url(#filter38)"
           id="path33"
           cx="442.7536"
           cy="381.0766"
           rx="19.572718"
           ry="17.822718" /><ellipse
           style="display:inline;fill:#000000;fill-opacity:1;fill-rule:nonzero;stroke:none;stroke-width:0.709;stroke-linecap:round;stroke-linejoin:round;stroke-dasharray:none;stroke-opacity:1;paint-order:markers fill stroke"
           id="ellipse38"
           cx="442.40005"
           cy="380.72308"
           rx="9.3617449"
           ry="8.3188524" /><circle
           style="fill:#fdfdfd;fill-opacity:1;fill-rule:nonzero;stroke:none;stroke-width:0.709;stroke-linecap:round;stroke-linejoin:round;stroke-dasharray:none;stroke-opacity:1;paint-order:markers fill stroke"
           id="path38"
           cx="446.8667"
           cy="376.73251"
           r="5" /></g><g
         id="g40"
         transform="matrix(-1,0,0,1,1026.6573,-14.142136)"><path
           id="path39"
           style="display:inline;fill:#ffffff;fill-opacity:1;stroke:#000000;stroke-width:2.27377;stroke-linecap:round;stroke-linejoin:round;stroke-opacity:0;paint-order:markers fill stroke"
           inkscape:transform-center-x="5.3801209"
           inkscape:transform-center-y="-3.1436189"
           d="m 461.59769,398.42791 c -14.76978,6.7981 -39.73113,5.90223 -43.36113,-3.38585 -9.46416,-24.21595 15.17898,-39.94732 36.42777,-34.65849 16.70591,4.1581 21.7031,31.24627 6.93336,38.04434 z"
           sodipodi:nodetypes="ssss" /><ellipse
           style="display:inline;fill:#301606;fill-opacity:1;fill-rule:nonzero;stroke:#000000;stroke-width:1.5;stroke-linecap:round;stroke-linejoin:round;stroke-dasharray:none;stroke-opacity:1;paint-order:markers fill stroke;filter:url(#filter38)"
           id="ellipse39"
           cx="442.7536"
           cy="381.0766"
           rx="19.572718"
           ry="17.822718" /><ellipse
           style="display:inline;fill:#000000;fill-opacity:1;fill-rule:nonzero;stroke:none;stroke-width:0.709;stroke-linecap:round;stroke-linejoin:round;stroke-dasharray:none;stroke-opacity:1;paint-order:markers fill stroke"
           id="ellipse40"
           cx="442.40005"
           cy="380.72308"
           rx="9.3617449"
           ry="8.3188524" /><circle
           style="fill:#fdfdfd;fill-opacity:1;fill-rule:nonzero;stroke:none;stroke-width:0.709;stroke-linecap:round;stroke-linejoin:round;stroke-dasharray:none;stroke-opacity:1;paint-order:markers fill stroke"
           id="circle40"
           cx="436.96719"
           cy="377.43961"
           r="5" /></g><path
         id="path40"
         style="display:inline;fill:#000000;fill-opacity:1;fill-rule:nonzero;stroke:none;stroke-width:0.920731;stroke-linecap:round;stroke-linejoin:round;stroke-dasharray:none;stroke-opacity:1;paint-order:markers fill stroke"
         d="m 587.22406,329.30221 c -13.28532,0.0481 -27.10547,2.85742 -27.10547,2.85742 0,0 29.93563,3.32091 42.44336,10.42187 8.04512,4.56742 12.78012,15.96409 18.97657,19.56836 1.01833,0.59234 5.3566,-0.17779 4.1582,-2.18359 -3.36338,-5.6294 -9.58173,-22.43305 -20.09766,-27.66602 -4.60221,-2.29017 -11.41602,-3.02322 -18.375,-2.99804 z m -153.18164,9.19335 c -6.95898,-0.0252 -13.77084,0.70593 -18.37304,2.9961 -10.51593,5.23296 -16.73428,22.03857 -20.09766,27.66797 -1.1984,2.0058 3.13791,2.77593 4.15625,2.18359 6.19644,-3.60428 10.9334,-15.0029 18.97851,-19.57031 12.50774,-7.10096 42.44141,-10.41992 42.44141,-10.41992 0,0 -13.82014,-2.80936 -27.10547,-2.85743 z" /></g><circle
       style="display:inline;fill:#000000;fill-opacity:0.9;fill-rule:nonzero;stroke:none;stroke-width:0.709;stroke-linecap:round;stroke-linejoin:round;stroke-dasharray:none;stroke-opacity:1;paint-order:markers fill stroke"
       id="path45"
       cx="640.43719"
       cy="462.11566"
       r="6.3639612" /></g><metadata
     id="metadata128"><rdf:RDF><cc:Work
         rdf:about=""><dc:title>Logo Dog</dc:title></cc:Work></rdf:RDF></metadata></svg>
